<mxfile host="app.diagrams.net" agent="Mozilla/5.0 (Windows NT 10.0; Win64; x64) AppleWebKit/537.36 (KHTML, like Gecko) Chrome/128.0.0.0 Safari/537.36 Edg/128.0.0.0" version="24.7.12">
  <diagram name="Page-1" id="Z5FTGkGa2ShZTrfyx7nZ">
    <mxGraphModel dx="1434" dy="827" grid="0" gridSize="10" guides="1" tooltips="1" connect="1" arrows="1" fold="1" page="1" pageScale="1" pageWidth="1654" pageHeight="2336" math="0" shadow="0">
      <root>
        <mxCell id="0" />
        <mxCell id="1" parent="0" />
        <mxCell id="1SRfXrtsyIx2hCv3YblZ-1" value="q0" style="ellipse;whiteSpace=wrap;html=1;aspect=fixed;" parent="1" vertex="1">
          <mxGeometry x="646" y="157.5" width="42" height="42" as="geometry" />
        </mxCell>
        <mxCell id="1SRfXrtsyIx2hCv3YblZ-13" style="edgeStyle=orthogonalEdgeStyle;curved=1;rounded=0;orthogonalLoop=1;jettySize=auto;html=1;exitX=1;exitY=0;exitDx=0;exitDy=0;entryX=0;entryY=0;entryDx=0;entryDy=0;" parent="1" source="1SRfXrtsyIx2hCv3YblZ-2" target="1SRfXrtsyIx2hCv3YblZ-2" edge="1">
          <mxGeometry relative="1" as="geometry">
            <mxPoint x="748" y="64" as="targetPoint" />
            <Array as="points">
              <mxPoint x="766" y="136" />
              <mxPoint x="738" y="136" />
            </Array>
          </mxGeometry>
        </mxCell>
        <mxCell id="1SRfXrtsyIx2hCv3YblZ-17" value="a" style="edgeLabel;html=1;align=center;verticalAlign=middle;resizable=0;points=[];" parent="1SRfXrtsyIx2hCv3YblZ-13" vertex="1" connectable="0">
          <mxGeometry x="-0.0619" y="-2" relative="1" as="geometry">
            <mxPoint x="-3" y="-6" as="offset" />
          </mxGeometry>
        </mxCell>
        <mxCell id="1SRfXrtsyIx2hCv3YblZ-14" style="rounded=0;orthogonalLoop=1;jettySize=auto;html=1;exitX=1;exitY=0.5;exitDx=0;exitDy=0;" parent="1" source="1SRfXrtsyIx2hCv3YblZ-2" target="1SRfXrtsyIx2hCv3YblZ-6" edge="1">
          <mxGeometry relative="1" as="geometry" />
        </mxCell>
        <mxCell id="1SRfXrtsyIx2hCv3YblZ-22" value=". / Îµ" style="edgeLabel;html=1;align=center;verticalAlign=middle;resizable=0;points=[];" parent="1SRfXrtsyIx2hCv3YblZ-14" vertex="1" connectable="0">
          <mxGeometry x="-0.0588" relative="1" as="geometry">
            <mxPoint x="-4" y="-9" as="offset" />
          </mxGeometry>
        </mxCell>
        <mxCell id="1SRfXrtsyIx2hCv3YblZ-2" value="q1" style="ellipse;whiteSpace=wrap;html=1;aspect=fixed;" parent="1" vertex="1">
          <mxGeometry x="732" y="158.5" width="40" height="40" as="geometry" />
        </mxCell>
        <mxCell id="1SRfXrtsyIx2hCv3YblZ-6" value="q2" style="ellipse;shape=doubleEllipse;whiteSpace=wrap;html=1;aspect=fixed;" parent="1" vertex="1">
          <mxGeometry x="823" y="154" width="47" height="47" as="geometry" />
        </mxCell>
        <mxCell id="1SRfXrtsyIx2hCv3YblZ-7" value="" style="endArrow=classic;html=1;rounded=0;exitX=1;exitY=0.5;exitDx=0;exitDy=0;entryX=0;entryY=0.5;entryDx=0;entryDy=0;" parent="1" source="1SRfXrtsyIx2hCv3YblZ-1" target="1SRfXrtsyIx2hCv3YblZ-2" edge="1">
          <mxGeometry width="50" height="50" relative="1" as="geometry">
            <mxPoint x="739" y="358" as="sourcePoint" />
            <mxPoint x="789" y="308" as="targetPoint" />
          </mxGeometry>
        </mxCell>
        <mxCell id="1SRfXrtsyIx2hCv3YblZ-16" value="a" style="edgeLabel;html=1;align=center;verticalAlign=middle;resizable=0;points=[];" parent="1SRfXrtsyIx2hCv3YblZ-7" vertex="1" connectable="0">
          <mxGeometry x="0.0404" relative="1" as="geometry">
            <mxPoint x="-3" y="-9" as="offset" />
          </mxGeometry>
        </mxCell>
        <mxCell id="1SRfXrtsyIx2hCv3YblZ-18" style="edgeStyle=orthogonalEdgeStyle;curved=1;rounded=0;orthogonalLoop=1;jettySize=auto;html=1;exitX=1;exitY=0;exitDx=0;exitDy=0;entryX=0;entryY=0;entryDx=0;entryDy=0;" parent="1" source="1SRfXrtsyIx2hCv3YblZ-6" target="1SRfXrtsyIx2hCv3YblZ-6" edge="1">
          <mxGeometry relative="1" as="geometry">
            <Array as="points">
              <mxPoint x="863" y="134" />
              <mxPoint x="830" y="134" />
            </Array>
          </mxGeometry>
        </mxCell>
        <mxCell id="1SRfXrtsyIx2hCv3YblZ-19" value="a" style="edgeLabel;html=1;align=center;verticalAlign=middle;resizable=0;points=[];" parent="1SRfXrtsyIx2hCv3YblZ-18" vertex="1" connectable="0">
          <mxGeometry x="-0.0805" y="-2" relative="1" as="geometry">
            <mxPoint x="-3" y="-10" as="offset" />
          </mxGeometry>
        </mxCell>
        <mxCell id="dPuKRaZLPDQicDzI08yV-1" value="" style="endArrow=classic;html=1;rounded=0;entryX=0;entryY=0.5;entryDx=0;entryDy=0;" edge="1" parent="1" target="1SRfXrtsyIx2hCv3YblZ-1">
          <mxGeometry width="50" height="50" relative="1" as="geometry">
            <mxPoint x="607" y="179" as="sourcePoint" />
            <mxPoint x="789" y="308" as="targetPoint" />
          </mxGeometry>
        </mxCell>
        <mxCell id="dPuKRaZLPDQicDzI08yV-8" style="edgeStyle=orthogonalEdgeStyle;rounded=0;orthogonalLoop=1;jettySize=auto;html=1;exitX=1;exitY=0.5;exitDx=0;exitDy=0;entryX=0;entryY=0.5;entryDx=0;entryDy=0;" edge="1" parent="1" source="dPuKRaZLPDQicDzI08yV-3" target="dPuKRaZLPDQicDzI08yV-7">
          <mxGeometry relative="1" as="geometry" />
        </mxCell>
        <mxCell id="dPuKRaZLPDQicDzI08yV-9" value="a" style="edgeLabel;html=1;align=center;verticalAlign=middle;resizable=0;points=[];" vertex="1" connectable="0" parent="dPuKRaZLPDQicDzI08yV-8">
          <mxGeometry x="-0.0769" y="-2" relative="1" as="geometry">
            <mxPoint x="-2" y="-11" as="offset" />
          </mxGeometry>
        </mxCell>
        <mxCell id="dPuKRaZLPDQicDzI08yV-3" value="q0" style="ellipse;whiteSpace=wrap;html=1;aspect=fixed;" vertex="1" parent="1">
          <mxGeometry x="576" y="552" width="42" height="42" as="geometry" />
        </mxCell>
        <mxCell id="dPuKRaZLPDQicDzI08yV-4" value="" style="endArrow=classic;html=1;rounded=0;entryX=0;entryY=0.5;entryDx=0;entryDy=0;" edge="1" parent="1" target="dPuKRaZLPDQicDzI08yV-3">
          <mxGeometry width="50" height="50" relative="1" as="geometry">
            <mxPoint x="537" y="573.5" as="sourcePoint" />
            <mxPoint x="719" y="702.5" as="targetPoint" />
          </mxGeometry>
        </mxCell>
        <mxCell id="dPuKRaZLPDQicDzI08yV-5" value="- w1 = aaaa" style="text;html=1;align=center;verticalAlign=middle;resizable=0;points=[];autosize=1;strokeColor=none;fillColor=none;" vertex="1" parent="1">
          <mxGeometry x="482" y="344" width="81" height="26" as="geometry" />
        </mxCell>
        <mxCell id="dPuKRaZLPDQicDzI08yV-6" value="T0" style="text;html=1;align=center;verticalAlign=middle;resizable=0;points=[];autosize=1;strokeColor=none;fillColor=none;" vertex="1" parent="1">
          <mxGeometry x="576" y="399" width="32" height="26" as="geometry" />
        </mxCell>
        <mxCell id="dPuKRaZLPDQicDzI08yV-18" style="edgeStyle=orthogonalEdgeStyle;rounded=0;orthogonalLoop=1;jettySize=auto;html=1;exitX=1;exitY=0.5;exitDx=0;exitDy=0;entryX=0;entryY=0.5;entryDx=0;entryDy=0;" edge="1" parent="1" source="dPuKRaZLPDQicDzI08yV-7" target="dPuKRaZLPDQicDzI08yV-17">
          <mxGeometry relative="1" as="geometry" />
        </mxCell>
        <mxCell id="dPuKRaZLPDQicDzI08yV-19" value="a" style="edgeLabel;html=1;align=center;verticalAlign=middle;resizable=0;points=[];" vertex="1" connectable="0" parent="dPuKRaZLPDQicDzI08yV-18">
          <mxGeometry x="-0.25" y="-1" relative="1" as="geometry">
            <mxPoint x="2" y="-11" as="offset" />
          </mxGeometry>
        </mxCell>
        <mxCell id="dPuKRaZLPDQicDzI08yV-36" style="rounded=0;orthogonalLoop=1;jettySize=auto;html=1;exitX=1;exitY=0;exitDx=0;exitDy=0;entryX=0;entryY=1;entryDx=0;entryDy=0;" edge="1" parent="1" source="dPuKRaZLPDQicDzI08yV-7" target="dPuKRaZLPDQicDzI08yV-30">
          <mxGeometry relative="1" as="geometry" />
        </mxCell>
        <mxCell id="dPuKRaZLPDQicDzI08yV-37" value="a" style="edgeLabel;html=1;align=center;verticalAlign=middle;resizable=0;points=[];" vertex="1" connectable="0" parent="dPuKRaZLPDQicDzI08yV-36">
          <mxGeometry x="-0.0452" relative="1" as="geometry">
            <mxPoint x="-7" y="-8" as="offset" />
          </mxGeometry>
        </mxCell>
        <mxCell id="dPuKRaZLPDQicDzI08yV-7" value="q1" style="ellipse;whiteSpace=wrap;html=1;aspect=fixed;" vertex="1" parent="1">
          <mxGeometry x="662" y="553" width="40" height="40" as="geometry" />
        </mxCell>
        <mxCell id="dPuKRaZLPDQicDzI08yV-14" style="rounded=0;orthogonalLoop=1;jettySize=auto;html=1;exitX=1;exitY=1;exitDx=0;exitDy=0;entryX=0;entryY=0;entryDx=0;entryDy=0;" edge="1" parent="1" source="dPuKRaZLPDQicDzI08yV-3" target="dPuKRaZLPDQicDzI08yV-20">
          <mxGeometry relative="1" as="geometry">
            <mxPoint x="663.9989999999998" y="649.98" as="targetPoint" />
          </mxGeometry>
        </mxCell>
        <mxCell id="dPuKRaZLPDQicDzI08yV-15" value="a" style="edgeLabel;html=1;align=center;verticalAlign=middle;resizable=0;points=[];" vertex="1" connectable="0" parent="dPuKRaZLPDQicDzI08yV-14">
          <mxGeometry x="-0.2026" y="-2" relative="1" as="geometry">
            <mxPoint x="-2" y="10" as="offset" />
          </mxGeometry>
        </mxCell>
        <mxCell id="dPuKRaZLPDQicDzI08yV-24" style="edgeStyle=orthogonalEdgeStyle;rounded=0;orthogonalLoop=1;jettySize=auto;html=1;exitX=1;exitY=0.5;exitDx=0;exitDy=0;entryX=0;entryY=0.5;entryDx=0;entryDy=0;" edge="1" parent="1" source="dPuKRaZLPDQicDzI08yV-17" target="dPuKRaZLPDQicDzI08yV-23">
          <mxGeometry relative="1" as="geometry" />
        </mxCell>
        <mxCell id="dPuKRaZLPDQicDzI08yV-25" value="a" style="edgeLabel;html=1;align=center;verticalAlign=middle;resizable=0;points=[];" vertex="1" connectable="0" parent="dPuKRaZLPDQicDzI08yV-24">
          <mxGeometry x="-0.2245" y="1" relative="1" as="geometry">
            <mxPoint x="2" y="-11" as="offset" />
          </mxGeometry>
        </mxCell>
        <mxCell id="dPuKRaZLPDQicDzI08yV-42" style="rounded=0;orthogonalLoop=1;jettySize=auto;html=1;exitX=1;exitY=1;exitDx=0;exitDy=0;entryX=0;entryY=0;entryDx=0;entryDy=0;" edge="1" parent="1" source="dPuKRaZLPDQicDzI08yV-17" target="dPuKRaZLPDQicDzI08yV-41">
          <mxGeometry relative="1" as="geometry" />
        </mxCell>
        <mxCell id="dPuKRaZLPDQicDzI08yV-43" value="a" style="edgeLabel;html=1;align=center;verticalAlign=middle;resizable=0;points=[];" vertex="1" connectable="0" parent="dPuKRaZLPDQicDzI08yV-42">
          <mxGeometry x="0.0019" y="1" relative="1" as="geometry">
            <mxPoint x="-16" y="8" as="offset" />
          </mxGeometry>
        </mxCell>
        <mxCell id="dPuKRaZLPDQicDzI08yV-17" value="q1" style="ellipse;whiteSpace=wrap;html=1;aspect=fixed;" vertex="1" parent="1">
          <mxGeometry x="745" y="553" width="40" height="40" as="geometry" />
        </mxCell>
        <mxCell id="dPuKRaZLPDQicDzI08yV-20" value="q2" style="ellipse;whiteSpace=wrap;html=1;aspect=fixed;" vertex="1" parent="1">
          <mxGeometry x="660" y="635" width="40" height="40" as="geometry" />
        </mxCell>
        <mxCell id="dPuKRaZLPDQicDzI08yV-21" value="X" style="text;html=1;align=center;verticalAlign=middle;resizable=0;points=[];autosize=1;strokeColor=none;fillColor=none;" vertex="1" parent="1">
          <mxGeometry x="756" y="645" width="26" height="26" as="geometry" />
        </mxCell>
        <mxCell id="dPuKRaZLPDQicDzI08yV-22" style="edgeStyle=orthogonalEdgeStyle;rounded=0;orthogonalLoop=1;jettySize=auto;html=1;exitX=1;exitY=0.5;exitDx=0;exitDy=0;entryX=0.192;entryY=0.385;entryDx=0;entryDy=0;entryPerimeter=0;" edge="1" parent="1" source="dPuKRaZLPDQicDzI08yV-20" target="dPuKRaZLPDQicDzI08yV-21">
          <mxGeometry relative="1" as="geometry" />
        </mxCell>
        <mxCell id="dPuKRaZLPDQicDzI08yV-27" style="edgeStyle=orthogonalEdgeStyle;rounded=0;orthogonalLoop=1;jettySize=auto;html=1;exitX=1;exitY=0.5;exitDx=0;exitDy=0;entryX=0;entryY=0.5;entryDx=0;entryDy=0;" edge="1" parent="1" source="dPuKRaZLPDQicDzI08yV-23" target="dPuKRaZLPDQicDzI08yV-26">
          <mxGeometry relative="1" as="geometry" />
        </mxCell>
        <mxCell id="dPuKRaZLPDQicDzI08yV-40" value="a" style="edgeLabel;html=1;align=center;verticalAlign=middle;resizable=0;points=[];" vertex="1" connectable="0" parent="dPuKRaZLPDQicDzI08yV-27">
          <mxGeometry x="-0.0417" y="1" relative="1" as="geometry">
            <mxPoint x="1" y="-10" as="offset" />
          </mxGeometry>
        </mxCell>
        <mxCell id="dPuKRaZLPDQicDzI08yV-47" style="rounded=0;orthogonalLoop=1;jettySize=auto;html=1;exitX=1;exitY=0;exitDx=0;exitDy=0;entryX=0;entryY=1;entryDx=0;entryDy=0;" edge="1" parent="1" source="dPuKRaZLPDQicDzI08yV-23" target="dPuKRaZLPDQicDzI08yV-46">
          <mxGeometry relative="1" as="geometry" />
        </mxCell>
        <mxCell id="dPuKRaZLPDQicDzI08yV-48" value="a" style="edgeLabel;html=1;align=center;verticalAlign=middle;resizable=0;points=[];" vertex="1" connectable="0" parent="dPuKRaZLPDQicDzI08yV-47">
          <mxGeometry x="-0.0208" y="2" relative="1" as="geometry">
            <mxPoint x="-6" y="-9" as="offset" />
          </mxGeometry>
        </mxCell>
        <mxCell id="dPuKRaZLPDQicDzI08yV-23" value="q1" style="ellipse;whiteSpace=wrap;html=1;aspect=fixed;" vertex="1" parent="1">
          <mxGeometry x="838" y="553" width="40" height="40" as="geometry" />
        </mxCell>
        <mxCell id="dPuKRaZLPDQicDzI08yV-26" value="q1" style="ellipse;whiteSpace=wrap;html=1;aspect=fixed;" vertex="1" parent="1">
          <mxGeometry x="926" y="553" width="40" height="40" as="geometry" />
        </mxCell>
        <mxCell id="dPuKRaZLPDQicDzI08yV-28" value="X" style="text;html=1;align=center;verticalAlign=middle;resizable=0;points=[];autosize=1;strokeColor=none;fillColor=none;" vertex="1" parent="1">
          <mxGeometry x="1018" y="562" width="26" height="26" as="geometry" />
        </mxCell>
        <mxCell id="dPuKRaZLPDQicDzI08yV-29" style="edgeStyle=orthogonalEdgeStyle;rounded=0;orthogonalLoop=1;jettySize=auto;html=1;exitX=1;exitY=0.5;exitDx=0;exitDy=0;entryX=0.115;entryY=0.423;entryDx=0;entryDy=0;entryPerimeter=0;" edge="1" parent="1" source="dPuKRaZLPDQicDzI08yV-26" target="dPuKRaZLPDQicDzI08yV-28">
          <mxGeometry relative="1" as="geometry">
            <mxPoint x="1016" y="565" as="targetPoint" />
          </mxGeometry>
        </mxCell>
        <mxCell id="dPuKRaZLPDQicDzI08yV-39" style="edgeStyle=orthogonalEdgeStyle;rounded=0;orthogonalLoop=1;jettySize=auto;html=1;exitX=1;exitY=0.5;exitDx=0;exitDy=0;" edge="1" parent="1" source="dPuKRaZLPDQicDzI08yV-30" target="dPuKRaZLPDQicDzI08yV-38">
          <mxGeometry relative="1" as="geometry" />
        </mxCell>
        <mxCell id="dPuKRaZLPDQicDzI08yV-30" value="q2" style="ellipse;whiteSpace=wrap;html=1;aspect=fixed;" vertex="1" parent="1">
          <mxGeometry x="746" y="470" width="40" height="40" as="geometry" />
        </mxCell>
        <mxCell id="dPuKRaZLPDQicDzI08yV-31" value="T1" style="text;html=1;align=center;verticalAlign=middle;resizable=0;points=[];autosize=1;strokeColor=none;fillColor=none;" vertex="1" parent="1">
          <mxGeometry x="662" y="399" width="32" height="26" as="geometry" />
        </mxCell>
        <mxCell id="dPuKRaZLPDQicDzI08yV-32" value="T2" style="text;html=1;align=center;verticalAlign=middle;resizable=0;points=[];autosize=1;strokeColor=none;fillColor=none;" vertex="1" parent="1">
          <mxGeometry x="753" y="401" width="32" height="26" as="geometry" />
        </mxCell>
        <mxCell id="dPuKRaZLPDQicDzI08yV-33" value="T3" style="text;html=1;align=center;verticalAlign=middle;resizable=0;points=[];autosize=1;strokeColor=none;fillColor=none;" vertex="1" parent="1">
          <mxGeometry x="838" y="401" width="32" height="26" as="geometry" />
        </mxCell>
        <mxCell id="dPuKRaZLPDQicDzI08yV-34" value="T4" style="text;html=1;align=center;verticalAlign=middle;resizable=0;points=[];autosize=1;strokeColor=none;fillColor=none;" vertex="1" parent="1">
          <mxGeometry x="926" y="399" width="32" height="26" as="geometry" />
        </mxCell>
        <mxCell id="dPuKRaZLPDQicDzI08yV-38" value="X" style="text;html=1;align=center;verticalAlign=middle;resizable=0;points=[];autosize=1;strokeColor=none;fillColor=none;" vertex="1" parent="1">
          <mxGeometry x="841" y="477" width="26" height="26" as="geometry" />
        </mxCell>
        <mxCell id="dPuKRaZLPDQicDzI08yV-41" value="q2" style="ellipse;whiteSpace=wrap;html=1;aspect=fixed;" vertex="1" parent="1">
          <mxGeometry x="838" y="635" width="40" height="40" as="geometry" />
        </mxCell>
        <mxCell id="dPuKRaZLPDQicDzI08yV-44" value="X" style="text;html=1;align=center;verticalAlign=middle;resizable=0;points=[];autosize=1;strokeColor=none;fillColor=none;" vertex="1" parent="1">
          <mxGeometry x="933" y="642" width="26" height="26" as="geometry" />
        </mxCell>
        <mxCell id="dPuKRaZLPDQicDzI08yV-45" style="edgeStyle=orthogonalEdgeStyle;rounded=0;orthogonalLoop=1;jettySize=auto;html=1;exitX=1;exitY=0.5;exitDx=0;exitDy=0;entryX=0.077;entryY=0.5;entryDx=0;entryDy=0;entryPerimeter=0;" edge="1" parent="1" source="dPuKRaZLPDQicDzI08yV-41" target="dPuKRaZLPDQicDzI08yV-44">
          <mxGeometry relative="1" as="geometry" />
        </mxCell>
        <mxCell id="dPuKRaZLPDQicDzI08yV-50" style="edgeStyle=orthogonalEdgeStyle;rounded=0;orthogonalLoop=1;jettySize=auto;html=1;exitX=1;exitY=0.5;exitDx=0;exitDy=0;" edge="1" parent="1" source="dPuKRaZLPDQicDzI08yV-46" target="dPuKRaZLPDQicDzI08yV-49">
          <mxGeometry relative="1" as="geometry" />
        </mxCell>
        <mxCell id="dPuKRaZLPDQicDzI08yV-46" value="q2" style="ellipse;shape=doubleEllipse;whiteSpace=wrap;html=1;aspect=fixed;" vertex="1" parent="1">
          <mxGeometry x="922.5" y="466.5" width="47" height="47" as="geometry" />
        </mxCell>
        <mxCell id="dPuKRaZLPDQicDzI08yV-49" value="Yes" style="text;html=1;align=center;verticalAlign=middle;resizable=0;points=[];autosize=1;strokeColor=none;fillColor=none;" vertex="1" parent="1">
          <mxGeometry x="1012" y="477" width="38" height="26" as="geometry" />
        </mxCell>
        <mxCell id="dPuKRaZLPDQicDzI08yV-51" value="- w2 = .aaaa" style="text;html=1;align=center;verticalAlign=middle;resizable=0;points=[];autosize=1;strokeColor=none;fillColor=none;" vertex="1" parent="1">
          <mxGeometry x="480.5" y="726" width="84" height="26" as="geometry" />
        </mxCell>
        <mxCell id="dPuKRaZLPDQicDzI08yV-55" style="edgeStyle=orthogonalEdgeStyle;rounded=0;orthogonalLoop=1;jettySize=auto;html=1;exitX=1;exitY=0.5;exitDx=0;exitDy=0;" edge="1" parent="1" source="dPuKRaZLPDQicDzI08yV-52" target="dPuKRaZLPDQicDzI08yV-54">
          <mxGeometry relative="1" as="geometry" />
        </mxCell>
        <mxCell id="dPuKRaZLPDQicDzI08yV-62" value="." style="edgeLabel;html=1;align=center;verticalAlign=middle;resizable=0;points=[];" vertex="1" connectable="0" parent="dPuKRaZLPDQicDzI08yV-55">
          <mxGeometry y="-2" relative="1" as="geometry">
            <mxPoint x="-4" y="-11" as="offset" />
          </mxGeometry>
        </mxCell>
        <mxCell id="dPuKRaZLPDQicDzI08yV-52" value="q0" style="ellipse;whiteSpace=wrap;html=1;aspect=fixed;" vertex="1" parent="1">
          <mxGeometry x="566" y="864" width="42" height="42" as="geometry" />
        </mxCell>
        <mxCell id="dPuKRaZLPDQicDzI08yV-53" value="" style="endArrow=classic;html=1;rounded=0;entryX=0;entryY=0.5;entryDx=0;entryDy=0;" edge="1" parent="1" target="dPuKRaZLPDQicDzI08yV-52">
          <mxGeometry width="50" height="50" relative="1" as="geometry">
            <mxPoint x="527" y="885.5" as="sourcePoint" />
            <mxPoint x="709" y="1014.5" as="targetPoint" />
          </mxGeometry>
        </mxCell>
        <mxCell id="dPuKRaZLPDQicDzI08yV-54" value="X" style="text;html=1;align=center;verticalAlign=middle;resizable=0;points=[];autosize=1;strokeColor=none;fillColor=none;" vertex="1" parent="1">
          <mxGeometry x="658" y="872" width="26" height="26" as="geometry" />
        </mxCell>
        <mxCell id="dPuKRaZLPDQicDzI08yV-65" value="T0" style="text;html=1;align=center;verticalAlign=middle;resizable=0;points=[];autosize=1;strokeColor=none;fillColor=none;" vertex="1" parent="1">
          <mxGeometry x="571" y="822" width="32" height="26" as="geometry" />
        </mxCell>
        <mxCell id="dPuKRaZLPDQicDzI08yV-66" value="T1" style="text;html=1;align=center;verticalAlign=middle;resizable=0;points=[];autosize=1;strokeColor=none;fillColor=none;" vertex="1" parent="1">
          <mxGeometry x="655" y="822" width="32" height="26" as="geometry" />
        </mxCell>
        <mxCell id="dPuKRaZLPDQicDzI08yV-67" value="- w3 = aaa.a" style="text;html=1;align=center;verticalAlign=middle;resizable=0;points=[];autosize=1;strokeColor=none;fillColor=none;" vertex="1" parent="1">
          <mxGeometry x="482" y="967" width="84" height="26" as="geometry" />
        </mxCell>
        <mxCell id="dPuKRaZLPDQicDzI08yV-68" value="NFAÎµ" style="text;html=1;align=center;verticalAlign=middle;resizable=0;points=[];autosize=1;strokeColor=none;fillColor=none;" vertex="1" parent="1">
          <mxGeometry x="482" y="55" width="47" height="26" as="geometry" />
        </mxCell>
        <mxCell id="dPuKRaZLPDQicDzI08yV-69" style="edgeStyle=orthogonalEdgeStyle;rounded=0;orthogonalLoop=1;jettySize=auto;html=1;exitX=1;exitY=0.5;exitDx=0;exitDy=0;entryX=0;entryY=0.5;entryDx=0;entryDy=0;" edge="1" parent="1" source="dPuKRaZLPDQicDzI08yV-71" target="dPuKRaZLPDQicDzI08yV-77">
          <mxGeometry relative="1" as="geometry" />
        </mxCell>
        <mxCell id="dPuKRaZLPDQicDzI08yV-70" value="a" style="edgeLabel;html=1;align=center;verticalAlign=middle;resizable=0;points=[];" vertex="1" connectable="0" parent="dPuKRaZLPDQicDzI08yV-69">
          <mxGeometry x="-0.0769" y="-2" relative="1" as="geometry">
            <mxPoint x="-2" y="-11" as="offset" />
          </mxGeometry>
        </mxCell>
        <mxCell id="dPuKRaZLPDQicDzI08yV-71" value="q0" style="ellipse;whiteSpace=wrap;html=1;aspect=fixed;" vertex="1" parent="1">
          <mxGeometry x="554" y="1148" width="42" height="42" as="geometry" />
        </mxCell>
        <mxCell id="dPuKRaZLPDQicDzI08yV-72" value="" style="endArrow=classic;html=1;rounded=0;entryX=0;entryY=0.5;entryDx=0;entryDy=0;" edge="1" parent="1" target="dPuKRaZLPDQicDzI08yV-71">
          <mxGeometry width="50" height="50" relative="1" as="geometry">
            <mxPoint x="515" y="1169.5" as="sourcePoint" />
            <mxPoint x="697" y="1298.5" as="targetPoint" />
          </mxGeometry>
        </mxCell>
        <mxCell id="dPuKRaZLPDQicDzI08yV-73" style="edgeStyle=orthogonalEdgeStyle;rounded=0;orthogonalLoop=1;jettySize=auto;html=1;exitX=1;exitY=0.5;exitDx=0;exitDy=0;entryX=0;entryY=0.5;entryDx=0;entryDy=0;" edge="1" parent="1" source="dPuKRaZLPDQicDzI08yV-77" target="dPuKRaZLPDQicDzI08yV-84">
          <mxGeometry relative="1" as="geometry" />
        </mxCell>
        <mxCell id="dPuKRaZLPDQicDzI08yV-74" value="a" style="edgeLabel;html=1;align=center;verticalAlign=middle;resizable=0;points=[];" vertex="1" connectable="0" parent="dPuKRaZLPDQicDzI08yV-73">
          <mxGeometry x="-0.25" y="-1" relative="1" as="geometry">
            <mxPoint x="2" y="-11" as="offset" />
          </mxGeometry>
        </mxCell>
        <mxCell id="dPuKRaZLPDQicDzI08yV-75" style="rounded=0;orthogonalLoop=1;jettySize=auto;html=1;exitX=1;exitY=0;exitDx=0;exitDy=0;entryX=0;entryY=1;entryDx=0;entryDy=0;" edge="1" parent="1" source="dPuKRaZLPDQicDzI08yV-77" target="dPuKRaZLPDQicDzI08yV-90">
          <mxGeometry relative="1" as="geometry" />
        </mxCell>
        <mxCell id="dPuKRaZLPDQicDzI08yV-76" value="a" style="edgeLabel;html=1;align=center;verticalAlign=middle;resizable=0;points=[];" vertex="1" connectable="0" parent="dPuKRaZLPDQicDzI08yV-75">
          <mxGeometry x="-0.0452" relative="1" as="geometry">
            <mxPoint x="-7" y="-8" as="offset" />
          </mxGeometry>
        </mxCell>
        <mxCell id="dPuKRaZLPDQicDzI08yV-77" value="q1" style="ellipse;whiteSpace=wrap;html=1;aspect=fixed;" vertex="1" parent="1">
          <mxGeometry x="640" y="1149" width="40" height="40" as="geometry" />
        </mxCell>
        <mxCell id="dPuKRaZLPDQicDzI08yV-78" style="rounded=0;orthogonalLoop=1;jettySize=auto;html=1;exitX=1;exitY=1;exitDx=0;exitDy=0;entryX=0;entryY=0;entryDx=0;entryDy=0;" edge="1" parent="1" source="dPuKRaZLPDQicDzI08yV-71" target="dPuKRaZLPDQicDzI08yV-85">
          <mxGeometry relative="1" as="geometry">
            <mxPoint x="641.9989999999998" y="1245.98" as="targetPoint" />
          </mxGeometry>
        </mxCell>
        <mxCell id="dPuKRaZLPDQicDzI08yV-79" value="a" style="edgeLabel;html=1;align=center;verticalAlign=middle;resizable=0;points=[];" vertex="1" connectable="0" parent="dPuKRaZLPDQicDzI08yV-78">
          <mxGeometry x="-0.2026" y="-2" relative="1" as="geometry">
            <mxPoint x="-2" y="10" as="offset" />
          </mxGeometry>
        </mxCell>
        <mxCell id="dPuKRaZLPDQicDzI08yV-80" style="edgeStyle=orthogonalEdgeStyle;rounded=0;orthogonalLoop=1;jettySize=auto;html=1;exitX=1;exitY=0.5;exitDx=0;exitDy=0;entryX=0;entryY=0.5;entryDx=0;entryDy=0;" edge="1" parent="1" source="dPuKRaZLPDQicDzI08yV-84" target="dPuKRaZLPDQicDzI08yV-88">
          <mxGeometry relative="1" as="geometry" />
        </mxCell>
        <mxCell id="dPuKRaZLPDQicDzI08yV-81" value="a" style="edgeLabel;html=1;align=center;verticalAlign=middle;resizable=0;points=[];" vertex="1" connectable="0" parent="dPuKRaZLPDQicDzI08yV-80">
          <mxGeometry x="-0.2245" y="1" relative="1" as="geometry">
            <mxPoint x="2" y="-11" as="offset" />
          </mxGeometry>
        </mxCell>
        <mxCell id="dPuKRaZLPDQicDzI08yV-82" style="rounded=0;orthogonalLoop=1;jettySize=auto;html=1;exitX=1;exitY=1;exitDx=0;exitDy=0;entryX=0;entryY=0;entryDx=0;entryDy=0;" edge="1" parent="1" source="dPuKRaZLPDQicDzI08yV-84" target="dPuKRaZLPDQicDzI08yV-92">
          <mxGeometry relative="1" as="geometry" />
        </mxCell>
        <mxCell id="dPuKRaZLPDQicDzI08yV-83" value="a" style="edgeLabel;html=1;align=center;verticalAlign=middle;resizable=0;points=[];" vertex="1" connectable="0" parent="dPuKRaZLPDQicDzI08yV-82">
          <mxGeometry x="0.0019" y="1" relative="1" as="geometry">
            <mxPoint x="-16" y="8" as="offset" />
          </mxGeometry>
        </mxCell>
        <mxCell id="dPuKRaZLPDQicDzI08yV-84" value="q1" style="ellipse;whiteSpace=wrap;html=1;aspect=fixed;" vertex="1" parent="1">
          <mxGeometry x="723" y="1149" width="40" height="40" as="geometry" />
        </mxCell>
        <mxCell id="dPuKRaZLPDQicDzI08yV-85" value="q2" style="ellipse;whiteSpace=wrap;html=1;aspect=fixed;" vertex="1" parent="1">
          <mxGeometry x="638" y="1231" width="40" height="40" as="geometry" />
        </mxCell>
        <mxCell id="dPuKRaZLPDQicDzI08yV-86" value="X" style="text;html=1;align=center;verticalAlign=middle;resizable=0;points=[];autosize=1;strokeColor=none;fillColor=none;" vertex="1" parent="1">
          <mxGeometry x="734" y="1241" width="26" height="26" as="geometry" />
        </mxCell>
        <mxCell id="dPuKRaZLPDQicDzI08yV-87" style="edgeStyle=orthogonalEdgeStyle;rounded=0;orthogonalLoop=1;jettySize=auto;html=1;exitX=1;exitY=0.5;exitDx=0;exitDy=0;entryX=0.192;entryY=0.385;entryDx=0;entryDy=0;entryPerimeter=0;" edge="1" parent="1" source="dPuKRaZLPDQicDzI08yV-85" target="dPuKRaZLPDQicDzI08yV-86">
          <mxGeometry relative="1" as="geometry" />
        </mxCell>
        <mxCell id="dPuKRaZLPDQicDzI08yV-98" style="edgeStyle=orthogonalEdgeStyle;rounded=0;orthogonalLoop=1;jettySize=auto;html=1;exitX=1;exitY=0.5;exitDx=0;exitDy=0;entryX=0;entryY=0.5;entryDx=0;entryDy=0;" edge="1" parent="1" source="dPuKRaZLPDQicDzI08yV-88" target="dPuKRaZLPDQicDzI08yV-97">
          <mxGeometry relative="1" as="geometry" />
        </mxCell>
        <mxCell id="dPuKRaZLPDQicDzI08yV-99" value="." style="edgeLabel;html=1;align=center;verticalAlign=middle;resizable=0;points=[];" vertex="1" connectable="0" parent="dPuKRaZLPDQicDzI08yV-98">
          <mxGeometry x="0.0943" y="-2" relative="1" as="geometry">
            <mxPoint x="-7" y="-14" as="offset" />
          </mxGeometry>
        </mxCell>
        <mxCell id="dPuKRaZLPDQicDzI08yV-88" value="q1" style="ellipse;whiteSpace=wrap;html=1;aspect=fixed;" vertex="1" parent="1">
          <mxGeometry x="816" y="1149" width="40" height="40" as="geometry" />
        </mxCell>
        <mxCell id="dPuKRaZLPDQicDzI08yV-89" style="edgeStyle=orthogonalEdgeStyle;rounded=0;orthogonalLoop=1;jettySize=auto;html=1;exitX=1;exitY=0.5;exitDx=0;exitDy=0;" edge="1" parent="1" source="dPuKRaZLPDQicDzI08yV-90" target="dPuKRaZLPDQicDzI08yV-91">
          <mxGeometry relative="1" as="geometry" />
        </mxCell>
        <mxCell id="dPuKRaZLPDQicDzI08yV-90" value="q2" style="ellipse;whiteSpace=wrap;html=1;aspect=fixed;" vertex="1" parent="1">
          <mxGeometry x="724" y="1066" width="40" height="40" as="geometry" />
        </mxCell>
        <mxCell id="dPuKRaZLPDQicDzI08yV-91" value="X" style="text;html=1;align=center;verticalAlign=middle;resizable=0;points=[];autosize=1;strokeColor=none;fillColor=none;" vertex="1" parent="1">
          <mxGeometry x="819" y="1073" width="26" height="26" as="geometry" />
        </mxCell>
        <mxCell id="dPuKRaZLPDQicDzI08yV-92" value="q2" style="ellipse;whiteSpace=wrap;html=1;aspect=fixed;" vertex="1" parent="1">
          <mxGeometry x="816" y="1231" width="40" height="40" as="geometry" />
        </mxCell>
        <mxCell id="dPuKRaZLPDQicDzI08yV-93" value="T0" style="text;html=1;align=center;verticalAlign=middle;resizable=0;points=[];autosize=1;strokeColor=none;fillColor=none;" vertex="1" parent="1">
          <mxGeometry x="554" y="1017" width="32" height="26" as="geometry" />
        </mxCell>
        <mxCell id="dPuKRaZLPDQicDzI08yV-94" value="T1" style="text;html=1;align=center;verticalAlign=middle;resizable=0;points=[];autosize=1;strokeColor=none;fillColor=none;" vertex="1" parent="1">
          <mxGeometry x="640" y="1017" width="32" height="26" as="geometry" />
        </mxCell>
        <mxCell id="dPuKRaZLPDQicDzI08yV-95" value="T2" style="text;html=1;align=center;verticalAlign=middle;resizable=0;points=[];autosize=1;strokeColor=none;fillColor=none;" vertex="1" parent="1">
          <mxGeometry x="727" y="1017" width="32" height="26" as="geometry" />
        </mxCell>
        <mxCell id="dPuKRaZLPDQicDzI08yV-96" value="T3" style="text;html=1;align=center;verticalAlign=middle;resizable=0;points=[];autosize=1;strokeColor=none;fillColor=none;" vertex="1" parent="1">
          <mxGeometry x="820" y="1017" width="32" height="26" as="geometry" />
        </mxCell>
        <mxCell id="dPuKRaZLPDQicDzI08yV-102" style="edgeStyle=orthogonalEdgeStyle;rounded=0;orthogonalLoop=1;jettySize=auto;html=1;exitX=1;exitY=0.5;exitDx=0;exitDy=0;entryX=0;entryY=0.5;entryDx=0;entryDy=0;" edge="1" parent="1" source="dPuKRaZLPDQicDzI08yV-97" target="dPuKRaZLPDQicDzI08yV-101">
          <mxGeometry relative="1" as="geometry" />
        </mxCell>
        <mxCell id="dPuKRaZLPDQicDzI08yV-103" value="a" style="edgeLabel;html=1;align=center;verticalAlign=middle;resizable=0;points=[];" vertex="1" connectable="0" parent="dPuKRaZLPDQicDzI08yV-102">
          <mxGeometry x="-0.1193" relative="1" as="geometry">
            <mxPoint x="-3" y="-11" as="offset" />
          </mxGeometry>
        </mxCell>
        <mxCell id="dPuKRaZLPDQicDzI08yV-97" value="q2" style="ellipse;whiteSpace=wrap;html=1;aspect=fixed;" vertex="1" parent="1">
          <mxGeometry x="909" y="1149" width="40" height="40" as="geometry" />
        </mxCell>
        <mxCell id="dPuKRaZLPDQicDzI08yV-105" style="edgeStyle=orthogonalEdgeStyle;rounded=0;orthogonalLoop=1;jettySize=auto;html=1;exitX=1;exitY=0.5;exitDx=0;exitDy=0;" edge="1" parent="1" source="dPuKRaZLPDQicDzI08yV-101" target="dPuKRaZLPDQicDzI08yV-104">
          <mxGeometry relative="1" as="geometry" />
        </mxCell>
        <mxCell id="dPuKRaZLPDQicDzI08yV-101" value="q2" style="ellipse;shape=doubleEllipse;whiteSpace=wrap;html=1;aspect=fixed;" vertex="1" parent="1">
          <mxGeometry x="1003" y="1145" width="47" height="47" as="geometry" />
        </mxCell>
        <mxCell id="dPuKRaZLPDQicDzI08yV-104" value="Yes" style="text;html=1;align=center;verticalAlign=middle;resizable=0;points=[];autosize=1;strokeColor=none;fillColor=none;" vertex="1" parent="1">
          <mxGeometry x="1100" y="1156" width="38" height="26" as="geometry" />
        </mxCell>
        <mxCell id="dPuKRaZLPDQicDzI08yV-106" value="T4" style="text;html=1;align=center;verticalAlign=middle;resizable=0;points=[];autosize=1;strokeColor=none;fillColor=none;" vertex="1" parent="1">
          <mxGeometry x="909" y="1017" width="32" height="26" as="geometry" />
        </mxCell>
        <mxCell id="dPuKRaZLPDQicDzI08yV-107" value="T5" style="text;html=1;align=center;verticalAlign=middle;resizable=0;points=[];autosize=1;strokeColor=none;fillColor=none;" vertex="1" parent="1">
          <mxGeometry x="1010.5" y="1017" width="32" height="26" as="geometry" />
        </mxCell>
      </root>
    </mxGraphModel>
  </diagram>
</mxfile>
